<svg id="visual" viewBox="0 0 900 600" width="900" height="600" xmlns="http://www.w3.org/2000/svg" xmlns:xlink="http://www.w3.org/1999/xlink" version="1.1"><rect x="0" y="0" width="900" height="600" fill="#001220"></rect><path d="M0 429L16.7 435.7C33.3 442.3 66.7 455.7 100 462.2C133.3 468.7 166.7 468.3 200 463.5C233.3 458.7 266.7 449.3 300 440.2C333.3 431 366.7 422 400 419.3C433.3 416.7 466.7 420.3 500 422.2C533.3 424 566.7 424 600 430.2C633.3 436.3 666.7 448.7 700 447.7C733.3 446.7 766.7 432.3 800 427.3C833.3 422.3 866.7 426.7 883.3 428.8L900 431L900 601L883.3 601C866.7 601 833.3 601 800 601C766.7 601 733.3 601 700 601C666.7 601 633.3 601 600 601C566.7 601 533.3 601 500 601C466.7 601 433.3 601 400 601C366.7 601 333.3 601 300 601C266.7 601 233.3 601 200 601C166.7 601 133.3 601 100 601C66.7 601 33.3 601 16.7 601L0 601Z" fill="#5b0888"></path><path d="M0 451L16.7 457.7C33.3 464.3 66.7 477.7 100 483.5C133.3 489.3 166.7 487.7 200 486.5C233.3 485.3 266.7 484.7 300 484.2C333.3 483.7 366.7 483.3 400 483.3C433.3 483.3 466.7 483.7 500 477.5C533.3 471.3 566.7 458.7 600 458.8C633.3 459 666.7 472 700 476C733.3 480 766.7 475 800 468.2C833.3 461.3 866.7 452.7 883.3 448.3L900 444L900 601L883.3 601C866.7 601 833.3 601 800 601C766.7 601 733.3 601 700 601C666.7 601 633.3 601 600 601C566.7 601 533.3 601 500 601C466.7 601 433.3 601 400 601C366.7 601 333.3 601 300 601C266.7 601 233.3 601 200 601C166.7 601 133.3 601 100 601C66.7 601 33.3 601 16.7 601L0 601Z" fill="#682694"></path><path d="M0 516L16.7 511.2C33.3 506.3 66.7 496.7 100 489C133.3 481.3 166.7 475.7 200 479.3C233.3 483 266.7 496 300 503.7C333.3 511.3 366.7 513.7 400 509.5C433.3 505.3 466.7 494.7 500 494.7C533.3 494.7 566.7 505.3 600 502C633.3 498.7 666.7 481.3 700 478.5C733.3 475.7 766.7 487.3 800 493.5C833.3 499.7 866.7 500.3 883.3 500.7L900 501L900 601L883.3 601C866.7 601 833.3 601 800 601C766.7 601 733.3 601 700 601C666.7 601 633.3 601 600 601C566.7 601 533.3 601 500 601C466.7 601 433.3 601 400 601C366.7 601 333.3 601 300 601C266.7 601 233.3 601 200 601C166.7 601 133.3 601 100 601C66.7 601 33.3 601 16.7 601L0 601Z" fill="#753c9f"></path><path d="M0 500L16.7 500.8C33.3 501.7 66.7 503.3 100 505.2C133.3 507 166.7 509 200 511.3C233.3 513.7 266.7 516.3 300 519C333.3 521.7 366.7 524.3 400 522.2C433.3 520 466.7 513 500 509.5C533.3 506 566.7 506 600 505.2C633.3 504.3 666.7 502.7 700 503.5C733.3 504.3 766.7 507.7 800 508.7C833.3 509.7 866.7 508.3 883.3 507.7L900 507L900 601L883.3 601C866.7 601 833.3 601 800 601C766.7 601 733.3 601 700 601C666.7 601 633.3 601 600 601C566.7 601 533.3 601 500 601C466.7 601 433.3 601 400 601C366.7 601 333.3 601 300 601C266.7 601 233.3 601 200 601C166.7 601 133.3 601 100 601C66.7 601 33.3 601 16.7 601L0 601Z" fill="#8350ab"></path><path d="M0 536L16.7 534.3C33.3 532.7 66.7 529.3 100 526.7C133.3 524 166.7 522 200 523C233.3 524 266.7 528 300 528.2C333.3 528.3 366.7 524.7 400 528.3C433.3 532 466.7 543 500 544.8C533.3 546.7 566.7 539.3 600 537C633.3 534.7 666.7 537.3 700 536.2C733.3 535 766.7 530 800 529.7C833.3 529.3 866.7 533.7 883.3 535.8L900 538L900 601L883.3 601C866.7 601 833.3 601 800 601C766.7 601 733.3 601 700 601C666.7 601 633.3 601 600 601C566.7 601 533.3 601 500 601C466.7 601 433.3 601 400 601C366.7 601 333.3 601 300 601C266.7 601 233.3 601 200 601C166.7 601 133.3 601 100 601C66.7 601 33.3 601 16.7 601L0 601Z" fill="#9063b6"></path><path d="M0 581L16.7 576C33.3 571 66.7 561 100 559.5C133.3 558 166.7 565 200 565.7C233.3 566.3 266.7 560.7 300 559.3C333.3 558 366.7 561 400 564.3C433.3 567.7 466.7 571.3 500 573.5C533.3 575.7 566.7 576.3 600 576.8C633.3 577.3 666.7 577.7 700 577.7C733.3 577.7 766.7 577.3 800 573C833.3 568.7 866.7 560.3 883.3 556.2L900 552L900 601L883.3 601C866.7 601 833.3 601 800 601C766.7 601 733.3 601 700 601C666.7 601 633.3 601 600 601C566.7 601 533.3 601 500 601C466.7 601 433.3 601 400 601C366.7 601 333.3 601 300 601C266.7 601 233.3 601 200 601C166.7 601 133.3 601 100 601C66.7 601 33.3 601 16.7 601L0 601Z" fill="#9d76c1"></path></svg>