<svg id="visual" viewBox="0 0 900 600" width="900" height="600" xmlns="http://www.w3.org/2000/svg" xmlns:xlink="http://www.w3.org/1999/xlink" version="1.1"><path d="M0 235L30 229C60 223 120 211 180 227C240 243 300 287 360 282C420 277 480 223 540 206C600 189 660 209 720 189C780 169 840 109 870 79L900 49L900 0L870 0C840 0 780 0 720 0C660 0 600 0 540 0C480 0 420 0 360 0C300 0 240 0 180 0C120 0 60 0 30 0L0 0Z" fill="#5c1a97"></path><path d="M0 313L30 302C60 291 120 269 180 277C240 285 300 323 360 318C420 313 480 265 540 255C600 245 660 273 720 249C780 225 840 149 870 111L900 73L900 47L870 77C840 107 780 167 720 187C660 207 600 187 540 204C480 221 420 275 360 280C300 285 240 241 180 225C120 209 60 221 30 227L0 233Z" fill="#671da9"></path><path d="M0 337L30 326C60 315 120 293 180 313C240 333 300 395 360 395C420 395 480 333 540 310C600 287 660 303 720 290C780 277 840 235 870 214L900 193L900 71L870 109C840 147 780 223 720 247C660 271 600 243 540 253C480 263 420 311 360 316C300 321 240 283 180 275C120 267 60 289 30 300L0 311Z" fill="#721fbb"></path><path d="M0 367L30 356C60 345 120 323 180 340C240 357 300 413 360 416C420 419 480 369 540 365C600 361 660 403 720 403C780 403 840 361 870 340L900 319L900 191L870 212C840 233 780 275 720 288C660 301 600 285 540 308C480 331 420 393 360 393C300 393 240 331 180 311C120 291 60 313 30 324L0 335Z" fill="#7e22ce"></path><path d="M0 439L30 442C60 445 120 451 180 466C240 481 300 505 360 514C420 523 480 517 540 518C600 519 660 527 720 522C780 517 840 499 870 490L900 481L900 317L870 338C840 359 780 401 720 401C660 401 600 359 540 363C480 367 420 417 360 414C300 411 240 355 180 338C120 321 60 343 30 354L0 365Z" fill="#8c3dd4"></path><path d="M0 517L30 522C60 527 120 537 180 546C240 555 300 563 360 568C420 573 480 575 540 571C600 567 660 557 720 549C780 541 840 535 870 532L900 529L900 479L870 488C840 497 780 515 720 520C660 525 600 517 540 516C480 515 420 521 360 512C300 503 240 479 180 464C120 449 60 443 30 440L0 437Z" fill="#9953d9"></path><path d="M0 601L30 601C60 601 120 601 180 601C240 601 300 601 360 601C420 601 480 601 540 601C600 601 660 601 720 601C780 601 840 601 870 601L900 601L900 527L870 530C840 533 780 539 720 547C660 555 600 565 540 569C480 573 420 571 360 566C300 561 240 553 180 544C120 535 60 525 30 520L0 515Z" fill="#a667de"></path></svg>